<svg width="41" height="41" viewBox="0 0 41 41" fill="none" xmlns="http://www.w3.org/2000/svg">
<rect x="0.380859" width="40.2376" height="40.1692" rx="12" fill="#3B71FE"/>
<path d="M12.8937 22.3138L17.8092 22.1693L19.4019 18.7185C19.5724 18.3492 19.2547 17.9456 18.8577 18.0342C17.5395 18.3282 15.6842 18.8151 14.6426 19.3359C13.6424 19.836 12.8923 20.8675 12.4627 21.6566C12.2919 21.9703 12.5367 22.3243 12.8937 22.3138Z" fill="white"/>
<path d="M28.9998 31.628L24.7851 24.2522C24.4147 23.604 23.4901 23.5743 23.0762 24.1956C21.7824 26.1376 19.9845 28.7833 19.1424 29.8359C18.0757 31.1693 16.9202 31.3915 16.4757 31.3359C15.2535 31.2804 12.4758 31.0693 11.1424 30.6693C9.80909 30.2693 10.5025 29.4507 11.1424 29.1693C11.9062 28.8333 13.8091 28.2359 15.1424 27.8359C16.4758 27.436 17.4758 25.8915 17.8091 25.1693L22.8091 15.6692C24.0869 13.0581 27.1091 7.86919 28.9758 8.00252C30.8424 8.13585 30.3091 10.1692 29.8091 11.1692L27.138 16.9828C27.0336 17.2099 27.0175 17.466 27.0938 17.704C28.0792 20.7776 29.9637 26.6717 30.4758 28.3359C30.8996 29.7134 30.2989 30.9716 29.7277 31.709C29.5318 31.9619 29.1585 31.9057 28.9998 31.628Z" fill="white"/>
</svg>
