<svg width="25" height="25" viewBox="0 0 25 25" fill="none" xmlns="http://www.w3.org/2000/svg">
<path fill-rule="evenodd" clip-rule="evenodd" d="M17.6163 17.0854H8.61618V10.5851C8.61618 8.08503 10.6162 6.08496 13.1162 6.08496C15.6162 6.08496 17.6163 8.08503 17.6163 10.5851V17.0854ZM19.6182 16.0855V10.5853C19.6182 7.51516 17.4782 4.94507 14.6182 4.26504V3.58502C14.6182 2.75656 13.9466 2.08496 13.1182 2.08496C12.2897 2.08496 11.6182 2.75656 11.6182 3.58502V4.26504C8.74816 4.94507 6.61816 7.51516 6.61816 10.5853V16.0855L4.61816 18.0855V19.0856H21.6182V18.0855L19.6182 16.0855ZM13.1181 22.085C14.2227 22.085 15.1181 21.1896 15.1181 20.085H11.1181C11.1181 21.1896 12.0135 22.085 13.1181 22.085Z" fill="#F4F5F9"/>
</svg>
